<svg preserveAspectRatio="none" overflow="visible" style="display: block;" width="28" height="28" viewBox="0 0 28 28" fill="none" xmlns="http://www.w3.org/2000/svg">
<g id="ic &#194;&#183; download">
<path id="Vector" d="M14 18.1708C13.8444 18.1708 13.6986 18.1465 13.5625 18.0979C13.4264 18.0493 13.3 17.9667 13.1833 17.85L8.98333 13.65C8.75 13.4167 8.63819 13.1444 8.64792 12.8333C8.65764 12.5222 8.76944 12.25 8.98333 12.0167C9.21667 11.7833 9.49375 11.6618 9.81458 11.6521C10.1354 11.6424 10.4125 11.7542 10.6458 11.9875L12.8333 14.175V5.83333C12.8333 5.50278 12.9451 5.22569 13.1687 5.00208C13.3924 4.77847 13.6694 4.66667 14 4.66667C14.3306 4.66667 14.6076 4.77847 14.8312 5.00208C15.0549 5.22569 15.1667 5.50278 15.1667 5.83333V14.175L17.3542 11.9875C17.5875 11.7542 17.8646 11.6424 18.1854 11.6521C18.5062 11.6618 18.7833 11.7833 19.0167 12.0167C19.2306 12.25 19.3424 12.5222 19.3521 12.8333C19.3618 13.1444 19.25 13.4167 19.0167 13.65L14.8167 17.85C14.7 17.9667 14.5736 18.0493 14.4375 18.0979C14.3014 18.1465 14.1556 18.1708 14 18.1708ZM7 23.3333C6.35833 23.3333 5.80903 23.1049 5.35208 22.6479C4.89514 22.191 4.66667 21.6417 4.66667 21V18.6667C4.66667 18.3361 4.77847 18.059 5.00208 17.8354C5.22569 17.6118 5.50278 17.5 5.83333 17.5C6.16389 17.5 6.44097 17.6118 6.66458 17.8354C6.88819 18.059 7 18.3361 7 18.6667V21H21V18.6667C21 18.3361 21.1118 18.059 21.3354 17.8354C21.559 17.6118 21.8361 17.5 22.1667 17.5C22.4972 17.5 22.7743 17.6118 22.9979 17.8354C23.2215 18.059 23.3333 18.3361 23.3333 18.6667V21C23.3333 21.6417 23.1049 22.191 22.6479 22.6479C22.191 23.1049 21.6417 23.3333 21 23.3333H7Z" fill="white"/>
</g>
</svg>
